<svg xmlns="http://www.w3.org/2000/svg" xmlns:xlink="http://www.w3.org/1999/xlink" width="37px" height="48px" viewBox="0 0 37 48"><path d="M24.3083977,31.5055906 C23.7381988,31.3178012 23.1036257,31.5124211 22.7418012,31.9976608 C22.5348304,32.2745263 22.349848,32.5678596 22.1949006,32.8625029 C19.7373567,31.3520468 16.6398129,31.3726316 14.319345,32.858386 C14.1562573,32.5485848 13.9643509,32.2374737 13.7163041,31.9387135 C13.3366082,31.4864094 12.7157895,31.3178012 12.1592515,31.5179415 C11.604117,31.7193918 11.2340585,32.2471111 11.2340585,32.8378012 L11.2340585,46.5052632 C11.2340585,46.9918129 11.4862222,47.442807 11.9001637,47.6990877 C12.3099883,47.9553684 12.8266667,47.9745497 13.2653099,47.7607485 L18.2516023,45.2675556 L23.2378947,47.7607485 C23.6820585,47.9812865 24.1978947,47.9510643 24.6030409,47.6990877 C25.0169825,47.442807 25.2691462,46.9918129 25.2691462,46.5052632 L25.2691462,32.8378012 C25.2691462,32.2333567 24.8827135,31.6974035 24.3083977,31.5055906 L24.3083977,31.5055906 Z M18.2516959,5.58175439 C11.286269,5.58175439 5.62011696,11.2479064 5.62011696,18.2133333 C5.62011696,25.1787602 11.286269,30.8449123 18.2516959,30.8449123 C25.2171228,30.8449123 30.8832749,25.1787602 30.8832749,18.2133333 C30.8832749,11.2479064 25.2171228,5.58175439 18.2516959,5.58175439 Z M21.5630409,22.7487251 L18.2516023,21.0409357 L14.9470877,22.7734269 L15.5748304,19.1042807 L12.9034854,16.4863626 L16.6027602,15.9271111 L18.2571228,12.6034152 L19.9004444,15.9271111 L23.5819415,16.4849591 L20.9284678,19.1041871 L21.5630409,22.7487251 Z" fill="#D3E6FA"></path><path d="M35.5149474,20.9922807 C34.2517895,19.2800936 34.2517895,17.1466667 35.5709942,15.4063158 L36.2167018,14.5080702 C36.7069942,13.7722573 36.4316257,12.7475088 35.6271345,12.402807 L34.6166082,11.9535906 C32.6516959,11.1114854 31.5849357,9.28701754 31.8376608,7.12561404 L31.949848,6.05894737 C32.0092632,5.16884211 31.3028304,4.45520468 30.4059883,4.51508772 L29.3112515,4.62736842 C27.2901053,4.88009357 25.3534503,3.78526316 24.4830877,1.8765848 L24.0621287,0.86605848 C23.682807,-0.0190877193 22.669848,-0.226994152 21.9568655,0.248421053 L21.0304561,0.922105263 C19.3744094,2.18526316 17.1567719,2.15719298 15.4444912,0.922105263 L14.5743158,0.276584795 C13.949848,-0.191906433 12.9069474,-0.0939415205 12.4409825,0.837988304 L11.9919532,1.8765848 C11.2901988,3.58877193 9.66203509,4.65553216 7.75335673,4.65553216 C7.23405848,4.65553216 7.45356725,4.6454269 6.12519298,4.51518129 C5.23518129,4.45576608 4.52154386,5.1622924 4.58133333,6.05904094 L4.69352047,7.15377778 C4.94624561,9.23097076 3.82334503,11.1397427 1.9145731,11.9817544 L0.904046784,12.4029006 C-0.00888888889,12.7941053 -0.185824561,13.878269 0.286409357,14.5081637 L0.960280702,15.4344795 C2.22334503,17.0905263 2.2514152,19.3081637 0.988163743,21.0204444 L0.342643275,21.8906199 C-0.182269006,22.5907836 0.0595087719,23.6017778 0.904046784,24.0239532 L1.94264327,24.4729825 C3.87948538,25.286924 4.91808187,27.1115789 4.66535673,29.273076 L4.55316959,30.3397427 C4.49347368,31.2344327 5.20523977,31.9431111 6.09702924,31.8836023 L7.19176608,31.7712281 C8.90404678,31.574924 10.5040468,32.2486082 11.5707135,33.7361404 C11.9400234,34.2286784 12.3261754,35.2757895 12.4408889,35.5327251 C12.8320936,36.4456608 13.9162573,36.6225965 14.546152,36.1503626 L15.4725614,35.4765848 C17.1007251,34.2135205 19.3462456,34.2414971 21.0585263,35.4765848 C21.8379415,35.9910175 22.0573567,36.4029006 22.770807,36.4029006 C23.2504327,36.4029006 23.7855439,36.1138713 24.0621287,35.5607953 C24.4005614,34.8058012 24.6236257,34.1490526 24.988538,33.6800936 C25.0445848,33.6238596 25.072655,33.5677193 25.1007251,33.4836023 C25.9428304,32.3887719 27.2901053,31.7432515 28.7779181,31.7432515 C29.259883,31.7432515 29.0712515,31.7555088 30.3779181,31.8836023 C31.2070175,31.942924 31.9847485,31.2837427 31.9217778,30.3397427 L31.8095906,29.2169357 C31.5568655,27.1116725 32.6235322,25.3150877 34.6166082,24.4168421 L35.5989708,23.995883 C36.3568655,23.6711111 36.7213099,22.6731228 36.1603743,21.8625497 L35.5149474,20.9922807 Z M18.2516959,29.4414035 C12.0480936,29.4414035 7.02362573,24.4167485 7.02362573,18.2133333 C7.02362573,12.009731 12.0480936,6.98526316 18.2516959,6.98526316 C24.4552982,6.98526316 29.4797661,12.009731 29.4797661,18.2133333 C29.4797661,24.4167485 24.4552047,29.4414035 18.2516959,29.4414035 Z M23.8094971,15.0975439 L20.8340585,14.6483275 L19.5148538,11.9816608 C19.0377544,11.0273684 17.4656374,11.0273684 16.9884444,11.9816608 L15.6692398,14.6483275 L12.6938012,15.0975439 C12.188538,15.1816608 11.7393216,15.5465731 11.5709006,16.0518363 C11.4024795,16.5570994 11.5428304,17.0904327 11.9358129,17.4834152 L14.0691462,19.5886784 L13.563883,22.5360468 C13.4795789,23.0413099 13.7042339,23.5746433 14.1252865,23.8833216 C14.5462456,24.1922807 15.1358129,24.2482339 15.5848421,23.9956959 L18.2515088,22.6202573 L20.9181754,23.9956959 C21.3423158,24.2379415 21.9259883,24.2348538 22.377731,23.8833216 C22.7988772,23.5746433 23.0234386,23.0412164 22.9391345,22.5360468 L22.4338713,19.5886784 L24.5672047,17.4834152 C24.9601871,17.0903392 25.100538,16.5570994 24.932117,16.0518363 C24.7636959,15.5465731 24.3147602,15.1817544 23.8094971,15.0975439 Z" fill="#0071DC" class="primary-fill-color"></path></svg>