<svg xmlns="http://www.w3.org/2000/svg" xmlns:xlink="http://www.w3.org/1999/xlink" width="40px" height="40px" viewBox="0 0 40 40"><path d="M39.7416406,16.8441406 C39.5192969,16.5673437 39.1832813,16.40625 38.828125,16.40625 L34.140625,16.40625 L32.9963281,38.5757031 L35.285,39.0805469 L39.9725,17.8305469 C40.0489844,17.48375 39.9640625,17.1209375 39.7416406,16.8441406 L39.7416406,16.8441406 Z M29.453125,0 L5.9375,0 C5.2903125,0 4.765625,0.5246875 4.765625,1.171875 L4.765625,38.671875 L30.625,38.671875 L30.625,1.171875 C30.625,0.5246875 30.1003125,0 29.453125,0 Z" fill="#D3E6FA"></path><path d="M10.625,7.03125 L24.765625,7.03125 C25.4128125,7.03125 25.9375,6.5065625 25.9375,5.859375 C25.9375,5.2121875 25.4128125,4.6875 24.765625,4.6875 L10.625,4.6875 C9.9778125,4.6875 9.453125,5.2121875 9.453125,5.859375 C9.453125,6.5065625 9.9778125,7.03125 10.625,7.03125 Z M24.765625,9.375 L15.3125,9.375 C14.6653125,9.375 14.140625,9.8996875 14.140625,10.546875 C14.140625,11.1940625 14.6653125,11.71875 15.3125,11.71875 L24.765625,11.71875 C25.4128125,11.71875 25.9375,11.1940625 25.9375,10.546875 C25.9375,9.8996875 25.4128125,9.375 24.765625,9.375 Z M34.140625,14.0625 L13.4541406,14.0625 L11.4536719,12.0620313 C11.2339063,11.8422656 10.9358594,11.71875 10.625,11.71875 L1.171875,11.71875 C0.5246875,11.71875 2.22044605e-15,12.2434375 2.22044605e-15,12.890625 L2.22044605e-15,38.828125 C2.22044605e-15,39.4753125 0.5246875,40 1.171875,40 L34.140625,40 C34.7878125,40 35.3125,39.4753125 35.3125,38.828125 L35.3125,15.234375 C35.3125,14.5871875 34.7878125,14.0625 34.140625,14.0625 Z M23.515625,26.4779688 C23.515625,30.1489844 21.4214063,33.5682031 18.1803125,35.1888281 C18.0153906,35.27125 17.8358594,35.3125 17.65625,35.3125 C17.4766406,35.3125 17.2971094,35.27125 17.1321875,35.1888281 C13.8910938,33.5682813 11.796875,30.1490625 11.796875,26.4779688 L11.796875,22.265625 C11.796875,21.6184375 12.3215625,21.09375 12.96875,21.09375 C13.6149219,21.09375 14.140625,20.5680469 14.140625,19.921875 C14.140625,19.2746875 14.6653125,18.75 15.3125,18.75 L20,18.75 C20.6471875,18.75 21.171875,19.2746875 21.171875,19.921875 C21.171875,20.5680469 21.6975781,21.09375 22.34375,21.09375 C22.9909375,21.09375 23.515625,21.6184375 23.515625,22.265625 L23.515625,26.4779688 Z M14.140625,23.2367188 L14.140625,26.4779687 C14.140625,28.5571094 15.0210938,30.5276562 16.484375,31.9051562 L16.484375,21.09375 L16.2835938,21.09375 C15.9299219,22.09125 15.138125,22.8830469 14.140625,23.2367188 Z M19.0289063,21.09375 L18.828125,21.09375 L18.828125,31.9051562 C20.2914063,30.5276562 21.171875,28.5571094 21.171875,26.4779687 L21.171875,23.2367188 C20.174375,22.8830469 19.3825781,22.09125 19.0289063,21.09375 L19.0289063,21.09375 Z" fill="#0071DC" class="primary-fill-color"></path></svg>