<svg xmlns="http://www.w3.org/2000/svg" xmlns:xlink="http://www.w3.org/1999/xlink" width="46px" height="40px" viewBox="0 0 46 40"><path d="M6.75555556,8 L25.4222222,8 C26.1689778,8 26.7555556,7.41342222 26.7555556,6.66666667 C26.7555556,5.91991111 26.1689778,5.33333333 25.4222222,5.33333333 L6.75555556,5.33333333 C6.0088,5.33333333 5.42222222,5.91991111 5.42222222,6.66666667 C5.42222222,7.41342222 6.0088,8 6.75555556,8 Z M24.0888889,9.33333333 L0,12 L0,38.6666667 C0,39.4134222 0.586577778,40 1.33333333,40 L44.1777778,40 C44.9245333,40 45.5111111,39.4134222 45.5111111,38.6666667 L45.5111111,12 L24.0888889,9.33333333 Z" fill="#0071DC" class="primary-fill-color"></path><path d="M44.1777778,0 L1.33333333,0 C0.586577778,0 0,0.586577778 0,1.33333333 L0,12 L45.5111111,12 L45.5111111,1.33333333 C45.5111111,0.586577778 44.9245333,0 44.1777778,0 Z M9.42222222,8 L6.75555556,8 C6.0088,8 5.42222222,7.41342222 5.42222222,6.66666667 C5.42222222,5.91991111 6.0088,5.33333333 6.75555556,5.33333333 L9.42222222,5.33333333 C10.1689778,5.33333333 10.7555556,5.91991111 10.7555556,6.66666667 C10.7555556,7.41342222 10.1689778,8 9.42222222,8 Z M17.4222222,8 L14.7555556,8 C14.0088,8 13.4222222,7.41342222 13.4222222,6.66666667 C13.4222222,5.91991111 14.0088,5.33333333 14.7555556,5.33333333 L17.4222222,5.33333333 C18.1689778,5.33333333 18.7555556,5.91991111 18.7555556,6.66666667 C18.7555556,7.41342222 18.1689778,8 17.4222222,8 Z M25.4222222,8 L22.7555556,8 C22.0088,8 21.4222222,7.41342222 21.4222222,6.66666667 C21.4222222,5.91991111 22.0088,5.33333333 22.7555556,5.33333333 L25.4222222,5.33333333 C26.1689778,5.33333333 26.7555556,5.91991111 26.7555556,6.66666667 C26.7555556,7.41342222 26.1689778,8 25.4222222,8 Z M36.0888889,26.6666667 L25.4222222,26.6666667 C24.6852444,26.6666667 24.0888889,27.2630222 24.0888889,28 C24.0888889,28.7369778 24.6852444,29.3333333 25.4222222,29.3333333 L36.0888889,29.3333333 C36.8258667,29.3333333 37.4222222,28.7369778 37.4222222,28 C37.4222222,27.2630222 36.8258667,26.6666667 36.0888889,26.6666667 Z M36.0888889,32 L9.42222222,32 C8.68524444,32 8.08888889,32.5963556 8.08888889,33.3333333 C8.08888889,34.0703111 8.68524444,34.6666667 9.42222222,34.6666667 L36.0888889,34.6666667 C36.8258667,34.6666667 37.4222222,34.0703111 37.4222222,33.3333333 C37.4222222,32.5963556 36.8258667,32 36.0888889,32 Z M9.42222222,29.3333333 L20.0888889,29.3333333 C20.8258667,29.3333333 21.4222222,28.7369778 21.4222222,28 L21.4222222,17.3333333 C21.4222222,16.5963556 20.8258667,16 20.0888889,16 L9.42222222,16 C8.68524444,16 8.08888889,16.5963556 8.08888889,17.3333333 L8.08888889,28 C8.08888889,28.7369778 8.68524444,29.3333333 9.42222222,29.3333333 Z M36.0888889,21.3333333 L25.4222222,21.3333333 C24.6852444,21.3333333 24.0888889,21.9296889 24.0888889,22.6666667 C24.0888889,23.4036444 24.6852444,24 25.4222222,24 L36.0888889,24 C36.8258667,24 37.4222222,23.4036444 37.4222222,22.6666667 C37.4222222,21.9296889 36.8258667,21.3333333 36.0888889,21.3333333 Z M36.0888889,16 L25.4222222,16 C24.6852444,16 24.0888889,16.5963556 24.0888889,17.3333333 C24.0888889,18.0703111 24.6852444,18.6666667 25.4222222,18.6666667 L36.0888889,18.6666667 C36.8258667,18.6666667 37.4222222,18.0703111 37.4222222,17.3333333 C37.4222222,16.5963556 36.8258667,16 36.0888889,16 Z" fill="#D3E6FA"></path></svg>