<svg xmlns="http://www.w3.org/2000/svg" xmlns:xlink="http://www.w3.org/1999/xlink" width="43px" height="40px" viewBox="0 0 43 40"><path d="M33.9166667,0 L8.75,0 C3.92525,0 0,3.92525 0,8.75 C0,13.57475 3.92525,17.5 8.75,17.5 L33.9166667,17.5 C34.607,17.5 35.1666667,16.9403333 35.1666667,16.25 L35.1666667,1.25 C35.1666667,0.559666667 34.607,0 33.9166667,0 Z" fill="#0071DC" class="primary-fill-color"></path><path d="M33.9166667,22.5 L8.75,22.5 C8.05966667,22.5 7.5,23.0596667 7.5,23.75 L7.5,38.75 C7.5,39.4403333 8.05966667,40 8.75,40 L33.9166667,40 C38.7414167,40 42.6666667,36.07475 42.6666667,31.25 C42.6666667,26.42525 38.7414167,22.5 33.9166667,22.5 Z" fill="#0071DC" class="primary-fill-color"></path><path d="M33.9166667,17.5 C29.0919167,17.5 25.1666667,13.57475 25.1666667,8.75 C25.1666667,3.92525 29.0919167,0 33.9166667,0 C38.7414167,0 42.6666667,3.92525 42.6666667,8.75 C42.6666667,13.57475 38.7414167,17.5 33.9166667,17.5 Z" fill="#D3E6FA"></path><path d="M8.75,40 C3.92525,40 0,36.07475 0,31.25 C0,26.42525 3.92525,22.5 8.75,22.5 C13.57475,22.5 17.5,26.42525 17.5,31.25 C17.5,36.07475 13.57475,40 8.75,40 Z" fill="#D3E6FA"></path></svg>