<svg xmlns="http://www.w3.org/2000/svg" xmlns:xlink="http://www.w3.org/1999/xlink" width="28px" height="32px" viewBox="0 0 28 32"><path d="M25.8541875,0 L1.2708125,0 C0.5804375,0 0.0208125,0.559625 0.0208125,1.25 L0.0208125,30.75 C0.0208125,31.440375 0.5804375,32 1.2708125,32 L25.854125,32 C26.5445,32 27.104125,31.440375 27.104125,30.75 L27.104125,1.25 C27.104125,0.559625 26.5445625,0 25.8541875,0 Z M9.8958125,2.5 L17.229125,2.5 L17.229125,4.9166875 L9.8958125,4.9166875 L9.8958125,2.5 Z M24.6041875,29.5 L2.5208125,29.5 L2.5208125,2.5 L7.3958125,2.5 L7.3958125,6.1666875 C7.3958125,6.8570625 7.9554375,7.4166875 8.6458125,7.4166875 L18.479125,7.4166875 C19.1695,7.4166875 19.729125,6.8570625 19.729125,6.1666875 L19.729125,2.5 L24.6041875,2.5 L24.6041875,29.5 L24.6041875,29.5 Z M20.0535625,10.1994375 C20.54175,9.71125 21.33325,9.71125 21.821375,10.1994375 C22.3095,10.687625 22.3095,11.4790625 21.821375,11.9671875 L19.3745,14.4140625 C18.8863125,14.90225 18.0948125,14.9021875 17.6066875,14.4140625 L16.3689375,13.1763125 C15.8808125,12.688125 15.8808125,11.8966875 16.3689375,11.4085625 C16.857125,10.920375 17.648625,10.920375 18.13675,11.4085625 L18.4905625,11.7624375 L20.0535625,10.1994375 Z M13.5833125,12.3068125 C13.5833125,12.9971875 13.0236875,13.5568125 12.3333125,13.5568125 L6.1875,13.5568125 C5.497125,13.5568125 4.9375,12.9971875 4.9375,12.3068125 C4.9375,11.6164375 5.497125,11.0568125 6.1875,11.0568125 L12.3333125,11.0568125 C13.0236875,11.0568125 13.5833125,11.6164375 13.5833125,12.3068125 Z M21.8213125,16.351 C22.3095,16.839125 22.3095625,17.630625 21.821375,18.11875 L19.3745,20.5656875 C18.886375,21.05375 18.0945625,21.0535625 17.6066875,20.5656875 L16.3689375,19.3279375 C15.8808125,18.83975 15.8808125,18.0483125 16.3689375,17.5601875 C16.857125,17.072 17.648625,17.072 18.13675,17.5601875 L18.4905625,17.9140625 L20.0535625,16.351 C20.54175,15.8628125 21.3331875,15.8628125 21.8213125,16.351 Z M13.5833125,18.446875 C13.5833125,19.13725 13.0236875,19.696875 12.3333125,19.696875 L6.1875,19.696875 C5.497125,19.696875 4.9375,19.13725 4.9375,18.446875 C4.9375,17.7565 5.497125,17.196875 6.1875,17.196875 L12.3333125,17.196875 C13.0236875,17.196875 13.5833125,17.7565 13.5833125,18.446875 Z M13.5833125,24.5984375 C13.5833125,25.2888125 13.0236875,25.8484375 12.3333125,25.8484375 L6.1875,25.8484375 C5.497125,25.8484375 4.9375,25.2888125 4.9375,24.5984375 C4.9375,23.9080625 5.497125,23.3484375 6.1875,23.3484375 L12.3333125,23.3484375 C13.0236875,23.3484375 13.5833125,23.9080625 13.5833125,24.5984375 Z"></path></svg>