<svg xmlns="http://www.w3.org/2000/svg" xmlns:xlink="http://www.w3.org/1999/xlink" width="35px" height="28px" viewBox="0 0 35 28"><path d="M33.3559322,0 L1.3559322,0 C0.606991525,0 0,0.606991525 0,1.3559322 L0,26.5762712 C0,27.3252119 0.606991525,27.9322034 1.3559322,27.9322034 L33.3559322,27.9322034 C34.1048729,27.9322034 34.7118644,27.3252119 34.7118644,26.5762712 C34.7118644,25.8556674 34.7118644,2.00926908 34.7118644,1.3559322 C34.7118644,0.606991525 34.1048729,0 33.3559322,0 Z M32,25.220339 L2.71186441,25.220339 L2.71186441,8.10195973 L32,8.10195973 L32,25.220339 Z M32,5.39009532 L2.71186441,5.39009532 L2.71186441,2.71186441 L32,2.71186441 L32,5.39009532 Z M11.40625,23.1027542 C14.9576271,23.1027542 17.846928,20.2134534 17.846928,16.6620763 C17.846928,13.1106991 14.9576271,10.2213983 11.40625,10.2213983 C7.85487288,10.2213983 4.96557207,13.1106991 4.96557207,16.6620763 C4.96557207,20.2134534 7.85460807,23.1027542 11.40625,23.1027542 Z M11.40625,12.9332627 C13.4621292,12.9332627 15.1350636,14.6059322 15.1350636,16.6620763 C15.1350636,18.7179555 13.4621292,20.3908898 11.40625,20.3908898 C9.3501059,20.3908898 7.67743647,18.7179555 7.67743647,16.6620763 C7.67743647,14.6059322 9.3501059,12.9332627 11.40625,12.9332627 Z M19.7597987,18.9854343 C19.7597987,18.2367585 20.3667902,17.6295021 21.1157309,17.6295021 L28.390625,17.6295021 C29.1393009,17.6295021 29.7465572,18.2367585 29.7465572,18.9854343 C29.7465572,19.734375 29.1393009,20.3413665 28.390625,20.3413665 L21.1157309,20.3413665 C20.3667902,20.3413665 19.7597987,19.734375 19.7597987,18.9854343 Z M19.7597987,14.3381885 C19.7597987,13.5895127 20.3667902,12.9822563 21.1157309,12.9822563 L25.4311441,12.9822563 C26.1798199,12.9822563 26.7870763,13.5895127 26.7870763,14.3381885 C26.7870763,15.0871292 26.1798199,15.6941207 25.4311441,15.6941207 L21.1157309,15.6941207 C20.3667902,15.6941207 19.7597987,15.0871292 19.7597987,14.3381885 Z" fill="#000000"></path></svg>