<svg xmlns="http://www.w3.org/2000/svg" xmlns:xlink="http://www.w3.org/1999/xlink" width="32px" height="32px" viewBox="0 0 32 32"><path d="M21,13.75 C21,14.4404297 21.5595703,15 22.25,15 C22.9404297,15 23.5,14.4404297 23.5,13.75 C23.5,10.8505859 21.8461914,8.33056638 19.4323731,7.08276369 C20.0219726,6.33740237 20.375,5.39697263 20.375,4.375 C20.375,1.9626465 18.4123535,0 16,0 C13.5876465,0 11.625,1.9626465 11.625,4.375 C11.625,5.39697263 11.9780274,6.33740237 12.5676269,7.08276369 C10.1538086,8.33056638 8.5,10.8505859 8.5,13.75 C8.5,14.4404297 9.05957031,15 9.75,15 C10.4404297,15 11,14.4404297 11,13.75 C11,10.9929199 13.2429199,8.75 16,8.75 C18.7570801,8.75 21,10.9929199 21,13.75 Z M14.125,4.375 C14.125,3.34106444 14.9660644,2.5 16,2.5 C17.0339356,2.5 17.875,3.34106444 17.875,4.375 C17.875,5.40893556 17.0339356,6.25 16,6.25 C14.9660644,6.25 14.125,5.40893556 14.125,4.375 Z M10.9323731,24.0827637 C11.5219726,23.3374024 11.875,22.3969726 11.875,21.375 C11.875,18.9626465 9.9123535,17 7.5,17 C5.0876465,17 3.125,18.9626465 3.125,21.375 C3.125,22.3969726 3.47802737,23.3374024 4.06762694,24.0827637 C1.65380862,25.3305664 0,27.8505859 0,30.75 C0,31.4404297 0.559570312,32 1.25,32 C1.94042969,32 2.5,31.4404297 2.5,30.75 C2.5,27.9929199 4.74291994,25.75 7.5,25.75 C10.2570801,25.75 12.5,27.9929199 12.5,30.75 C12.5,31.4404297 13.0595703,32 13.75,32 C14.4404297,32 15,31.4404297 15,30.75 C15,27.8505859 13.3461914,25.3305664 10.9323731,24.0827637 L10.9323731,24.0827637 Z M5.625,21.375 C5.625,20.3410644 6.46606444,19.5 7.5,19.5 C8.53393556,19.5 9.375,20.3410644 9.375,21.375 C9.375,22.4089356 8.53393556,23.25 7.5,23.25 C6.46606444,23.25 5.625,22.4089356 5.625,21.375 Z M27.9323731,24.0827637 C28.5219726,23.3374024 28.875,22.3969726 28.875,21.375 C28.875,18.9626465 26.9123535,17 24.5,17 C22.0876465,17 20.125,18.9626465 20.125,21.375 C20.125,22.3969726 20.4780274,23.3374024 21.0676269,24.0827637 C18.6538086,25.3305664 17,27.8505859 17,30.75 C17,31.4404297 17.5595703,32 18.25,32 C18.9404297,32 19.5,31.4404297 19.5,30.75 C19.5,27.9929199 21.7429199,25.75 24.5,25.75 C27.2570801,25.75 29.5,27.9929199 29.5,30.75 C29.5,31.4404297 30.0595703,32 30.75,32 C31.4404297,32 32,31.4404297 32,30.75 C32,27.8505859 30.3461914,25.3305664 27.9323731,24.0827637 L27.9323731,24.0827637 Z M22.625,21.375 C22.625,20.3410644 23.4660644,19.5 24.5,19.5 C25.5339356,19.5 26.375,20.3410644 26.375,21.375 C26.375,22.4089356 25.5339356,23.25 24.5,23.25 C23.4660644,23.25 22.625,22.4089356 22.625,21.375 Z"></path></svg>