<svg xmlns="http://www.w3.org/2000/svg" xmlns:xlink="http://www.w3.org/1999/xlink" width="32px" height="32px" viewBox="0 0 32 32"><g fill-rule="nonzero"><path d="M15.509875,21.45125 C14.5949375,21.45125 13.8541875,22.21375 13.8541875,23.12875 C13.8541875,24.0219375 14.573125,24.80625 15.509875,24.80625 C16.446625,24.80625 17.187375,24.022 17.187375,23.12875 C17.187375,22.21375 16.4249375,21.45125 15.509875,21.45125 Z"></path><path d="M15.793125,8.750125 C12.8520625,8.750125 11.501375,10.4929375 11.501375,11.669375 C11.501375,12.5190625 12.22025,12.9111875 12.8085,12.9111875 C13.984875,12.9111875 13.505625,11.2336875 15.72775,11.2336875 C16.8170625,11.2336875 17.6885,11.713 17.6885,12.715125 C17.6885,13.891625 16.4685,14.5669375 15.7495625,15.1769375 C15.1178125,15.7215625 14.2899375,16.6148125 14.2899375,18.488375 C14.2899375,19.6211875 14.594875,19.948 15.488125,19.948 C16.555625,19.948 16.7734375,19.46875 16.7734375,19.0548125 C16.7734375,17.9219375 16.7953125,17.268375 17.9935,16.331625 C18.5816875,15.874125 20.4335,14.3926875 20.4335,12.3448125 C20.4335,10.2969375 18.5816875,8.750125 15.793125,8.750125 Z"></path><path d="M16,0 C7.15725,0 0,7.1560625 0,16 L0,30.75 C0,31.440375 0.559625,32 1.25,32 L16,32 C24.8426875,32 32,24.8439375 32,16 C32,7.15725 24.8439375,0 16,0 Z M16,29.5 L2.5,29.5 L2.5,16 C2.5,8.5389375 8.5379375,2.5 16,2.5 C23.4610625,2.5 29.5,8.5379375 29.5,16 C29.5,23.4610625 23.4620625,29.5 16,29.5 Z"></path></g></svg>