<svg xmlns="http://www.w3.org/2000/svg" xmlns:xlink="http://www.w3.org/1999/xlink" width="75px" height="60px" viewBox="0 0 75 60"><path d="M5.42713568,55.7336683 L5.42713568,4.26633166 C5.42753541,3.3943158 5.77432577,2.55817425 6.39121681,1.94184865 C7.00810785,1.32552304 7.84456706,0.979899151 8.71658291,0.979899151 L4.19396985,0.979899151 C3.321954,0.979899151 2.48549479,1.32552304 1.86860374,1.94184865 C1.2517127,2.55817425 0.904922345,3.3943158 0.904522613,4.26633166 L0.904522613,55.7336683 C0.905438248,57.5495129 2.37812526,59.02085 4.19396985,59.0201008 L8.71658291,59.0201008 C6.90073833,59.02085 5.42805131,57.5495129 5.42713568,55.7336683 Z" fill="#D3E6FA"></path><path d="M69.9771859,0.0753768844 L4.19366834,0.0753768844 C1.87931664,0.0770374579 0.00315858909,1.95198151 8.56935963e-15,4.26633166 L8.56935963e-15,55.7336683 C0.0032415,58.0479841 1.87935101,59.9228796 4.19366834,59.9246231 L69.9771859,59.9246231 C72.2915033,59.9228796 74.1676128,58.0479841 74.1708543,55.7336683 L74.1708543,4.26633166 C74.1676957,1.95198151 72.2915376,0.0770374579 69.9771859,0.0753768844 Z M4.19366834,1.88442211 L69.9771859,1.88442211 C71.292843,1.8850854 72.3596478,2.95067624 72.361809,4.26633166 L72.361809,13.5015075 L1.80904523,13.5015075 L1.80904523,4.26633166 C1.81120651,2.95067624 2.87801132,1.8850854 4.19366834,1.88442211 Z M69.9771859,58.1155779 L4.19366834,58.1155779 C2.87801132,58.1149146 1.81120651,57.0493238 1.80904523,55.7336683 L1.80904523,15.3101005 L72.361809,15.3101005 L72.361809,55.7336683 C72.3596478,57.0493238 71.292843,58.1149146 69.9771859,58.1155779 L69.9771859,58.1155779 Z" fill="#0071DC" class="primary-fill-color"></path><path d="M7.62376884,11.0644221 C9.54900505,11.0631734 11.108822,9.50166957 11.10799,7.57643314 C11.1071573,5.65119671 9.54599083,4.09104214 7.62075426,4.09145802 C5.69551769,4.09187406 4.13502513,5.65270309 4.13502513,7.5779397 C4.13785071,9.50318189 5.69852522,11.0628448 7.62376884,11.0644221 Z M7.62376884,5.90065327 C8.54991605,5.90190178 9.2998038,6.65349856 9.29894473,7.57964621 C9.29808418,8.50579386 8.5468022,9.255997 7.62065427,9.25552612 C6.69450634,9.2550548 5.94398796,8.50408774 5.94407035,7.5779397 C5.94581582,6.65138229 6.69720988,5.90106723 7.62376884,5.90065327 L7.62376884,5.90065327 Z" fill="#0071DC" class="primary-fill-color"></path><path d="M16.8413065,11.0644221 C18.766523,11.0630902 20.3262643,9.50154954 20.3253769,7.57633277 C20.3244887,5.651116 18.7633079,4.09101454 16.838091,4.09145812 C14.9128741,4.09190188 13.3524121,5.65272272 13.3524121,7.5779397 C13.3552378,9.50324069 14.916004,11.0629279 16.8413065,11.0644221 Z M16.8413065,5.90065327 C17.767434,5.90198499 18.5172461,6.65361849 18.5163317,7.57974644 C18.5154156,8.50587438 17.7641194,9.25602442 16.8379911,9.25552591 C15.9118628,9.2550269 15.161375,8.50406809 15.1614573,7.5779397 C15.1632858,6.65135792 15.914723,5.90106705 16.8413065,5.90065327 L16.8413065,5.90065327 Z" fill="#0071DC" class="primary-fill-color"></path><path d="M26.0588442,11.0644221 C27.9840607,11.0630902 29.543802,9.50154954 29.5429146,7.57633277 C29.5420264,5.651116 27.9808456,4.09101454 26.0556287,4.09145812 C24.1304118,4.09190188 22.5699497,5.65272272 22.5699497,7.5779397 C22.5727755,9.50324069 24.1335417,11.0629279 26.0588442,11.0644221 L26.0588442,11.0644221 Z M26.0588442,5.90065327 C26.9849717,5.90198499 27.7347838,6.65361849 27.7338694,7.57974644 C27.7329533,8.50587438 26.981657,9.25602442 26.0555288,9.25552591 C25.1294005,9.2550269 24.3789127,8.50406809 24.378995,7.5779397 C24.3808234,6.65135792 25.1322607,5.90106705 26.0588442,5.90065327 L26.0588442,5.90065327 Z" fill="#0071DC" class="primary-fill-color"></path><path d="M39.669799,8.31045226 L69.3036181,8.31045226 C69.8031721,8.31045226 70.2081407,7.90548369 70.2081407,7.40592965 C70.2081407,6.9063756 69.8031721,6.50140704 69.3036181,6.50140704 L39.669799,6.50140704 C39.1702449,6.50140704 38.7652764,6.9063756 38.7652764,7.40592965 C38.7652764,7.90548369 39.1702449,8.31045226 39.669799,8.31045226 L39.669799,8.31045226 Z" id="Path" fill="#0071DC"></path><g transform="translate(5.125628, 19.145729)" fill="#FFC221" class="secondary-fill-color"><path d="M1.76683417,25.1894472 L37.4764824,25.1894472 C38.1422445,25.1886995 38.6817648,24.6491792 38.6825126,23.9834171 L38.6825126,1.3480402 C38.6817648,0.682278103 38.1422445,0.142757772 37.4764824,0.14201005 L1.76683417,0.14201005 C1.10107207,0.142757772 0.561551741,0.682278103 0.56080402,1.3480402 L0.56080402,23.9834171 C0.561551741,24.6491792 1.10107207,25.1886995 1.76683417,25.1894472 L1.76683417,25.1894472 Z M2.36984925,1.95105528 L36.8734673,1.95105528 L36.8734673,23.380402 L2.36984925,23.380402 L2.36984925,1.95105528 Z"></path><path d="M23.5733668,11.621005 L16.7787437,7.70140704 C16.4055781,7.48595977 15.9458164,7.48597121 15.5726616,7.70143706 C15.1995067,7.91690291 14.9696985,8.31508537 14.9696985,8.7459799 L14.9696985,16.5841206 C14.9701603,17.0148058 15.2000874,17.4126101 15.5730478,17.6279947 C15.9460081,17.8433793 16.4054802,17.843703 16.7787437,17.6288442 L23.5735176,13.7092462 C23.9468555,13.4938609 24.1768714,13.0956108 24.1768714,12.664598 C24.1768714,12.2335852 23.9468555,11.8353351 23.5735176,11.6199497 L23.5733668,11.621005 Z M16.7790452,15.540603 L16.7790452,9.79055276 L21.7637186,12.6657286 L16.7790452,15.540603 Z"></path><path d="M1.02949749,29.758794 L8.79859296,29.758794 C9.29814701,29.758794 9.70311558,29.3538254 9.70311558,28.8542714 C9.70311558,28.3547173 9.29814701,27.9497487 8.79859296,27.9497487 L1.02949749,27.9497487 C0.529943442,27.9497487 0.124974874,28.3547173 0.124974874,28.8542714 C0.124974874,29.3538254 0.529943442,29.758794 1.02949749,29.758794 Z"></path><path d="M37.3881407,34.2681407 C37.8876947,34.2681407 38.2926633,33.8631721 38.2926633,33.3636181 C38.2926633,32.864064 37.8876947,32.4590955 37.3881407,32.4590955 L1.02949749,32.4590955 C0.529943442,32.4590955 0.124974874,32.864064 0.124974874,33.3636181 C0.124974874,33.8631721 0.529943442,34.2681407 1.02949749,34.2681407 L37.3881407,34.2681407 Z"></path><path d="M45.0094975,14.7961809 L61.8637688,14.7961809 C62.5295309,14.7954332 63.0690513,14.2559129 63.069799,13.5901508 L63.069799,1.3480402 C63.0691342,0.682243704 62.5295653,0.14267485 61.8637688,0.14201005 L45.0094975,0.14201005 C44.3437354,0.142757772 43.8042151,0.682278103 43.8034673,1.3480402 L43.8034673,13.5901508 C43.8042151,14.2559129 44.3437354,14.7954332 45.0094975,14.7961809 L45.0094975,14.7961809 Z M45.6125126,1.95105528 L61.2607538,1.95105528 L61.2607538,12.9871357 L45.6125126,12.9871357 L45.6125126,1.95105528 Z"></path><path d="M45.0094975,34.3385427 L61.8637688,34.3385427 C62.5295653,34.3378779 63.0691342,33.7983091 63.069799,33.1325126 L63.069799,20.890402 C63.0690513,20.2246399 62.5295309,19.6851196 61.8637688,19.6843719 L45.0094975,19.6843719 C44.3437354,19.6851196 43.8042151,20.2246399 43.8034673,20.890402 L43.8034673,33.1325126 C43.8042151,33.7982747 44.3437354,34.337795 45.0094975,34.3385427 L45.0094975,34.3385427 Z M45.6125126,21.4934171 L61.2607538,21.4934171 L61.2607538,32.5294975 L45.6125126,32.5294975 L45.6125126,21.4934171 Z"></path></g></svg>