<svg xmlns="http://www.w3.org/2000/svg" xmlns:xlink="http://www.w3.org/1999/xlink" width="82px" height="70px" viewBox="0 0 82 70"><path d="M8.65683453,51.1990408 L29.4100719,51.1990408 C28.6119193,50.6450107 28.1340813,49.7365735 28.1297602,48.764988 C28.1297602,48.292446 27.7453477,47.8417266 27.2736451,47.8417266 L5.29952038,47.8417266 C3.58074341,47.8417266 2.1822542,49.3122302 2.1822542,51.0311751 C2.1822542,52.7501199 3.58074341,54.2206235 5.29952038,54.2206235 L5.5481295,54.2206235 C5.63592326,52.5755396 6.99446043,51.1990408 8.65683453,51.1990408 Z" fill="#D3E6FA"></path><path d="M10.4076739,8.17270983 C10.4076739,6.67232614 11.637458,5.37170264 13.1378417,5.37170264 L71.3429257,5.37170264 L71.3429257,4.81539568 C71.3429257,3.31501199 70.202446,2.01438849 68.7020624,2.01438849 L9.78119904,2.01438849 C8.28014388,2.01438849 7.05035971,3.31501199 7.05035971,4.81539568 L7.05035971,45.8273381 L10.4076739,45.8273381 L10.4076739,8.17270983 Z" fill="#D3E6FA"></path><path d="M65.2232134,29.0407674 L61.8658993,29.0407674 C59.9890984,29.0582292 58.4456351,30.524633 58.3321583,32.3980815 L61.6894724,32.3980815 C61.8029493,30.524633 63.3464125,29.0582292 65.2232134,29.0407674 Z" fill="#D3E6FA"></path><path d="M61.6067146,64.5292566 L61.6067146,60.9352518 L58.2494005,60.9352518 L58.2494005,64.5292566 C58.2791044,66.5154295 59.8797942,68.1195371 61.8658993,68.1534772 L65.2232134,68.1534772 C63.2371084,68.1195371 61.6364186,66.5154295 61.6067146,64.5292566 L61.6067146,64.5292566 Z" fill="#D3E6FA"></path><rect fill="#D3E6FA" x="58.2494005" y="34.41247" width="3.35731415" height="24.5083933"></rect><path d="M67.3141487,28.117506 L67.3141487,7.71426859 C67.2848722,7.14822895 66.8132629,6.70665136 66.2465228,6.71452191 L12.2360671,6.71452191 C11.9716136,6.71365527 11.7178644,6.81900524 11.5318633,7.00699516 C11.3458622,7.19498509 11.2432169,7.44984034 11.2468766,7.71426859 L11.2468766,41.1270983 C11.2427794,41.3923542 11.3450413,41.6482373 11.530918,41.8375211 C11.7167947,42.0268049 11.9707784,42.1336973 12.2360671,42.1342926 L57.3143885,42.1342926 C57.8705276,42.1342926 57.8705276,40.1199041 57.3143885,40.1199041 L13.2613909,40.1199041 L13.2613909,8.72901679 L65.2997602,8.72901679 L65.2997602,28.117506 C65.2997602,28.6733094 67.3141487,28.6733094 67.3141487,28.117506 Z" fill="#0071DC" class="primary-fill-color"></path><path d="M5.29952038,56.235012 L57.3143885,56.235012 C57.8705276,56.235012 57.8705276,54.2206235 57.3143885,54.2206235 L5.29952038,54.2206235 C3.58074341,54.2206235 2.1822542,52.7501199 2.1822542,51.0311751 C2.1822542,49.3122302 3.58074341,47.8417266 5.29952038,47.8417266 L27.2731415,47.8417266 C27.7456835,47.8417266 28.1292566,48.292446 28.1292566,48.764988 C28.1292566,50.3482974 29.4172902,51.7026379 31.0005995,51.7026379 L45.913789,51.7026379 C47.4970983,51.7026379 48.7851319,50.3482974 48.7851319,48.764988 C48.7851319,48.292446 49.1695444,47.8417266 49.6420863,47.8417266 L57.3135492,47.8417266 C57.8696882,47.8417266 57.8696882,45.8273381 57.3135492,45.8273381 L49.6420863,45.8273381 C48.058777,45.8273381 46.7707434,47.1816787 46.7707434,48.764988 C46.7707434,49.23753 46.3863309,49.6882494 45.913789,49.6882494 L31.0014388,49.6882494 C30.5288969,49.6882494 30.1444844,49.23753 30.1444844,48.764988 C30.1444844,47.1816787 28.856283,45.8273381 27.2739808,45.8273381 L7.05035971,45.8273381 L7.05035971,4.81539568 C7.05035971,3.31501199 8.28014388,2.01438849 9.78052758,2.01438849 L68.7013909,2.01438849 C70.202446,2.01438849 71.3429257,3.31501199 71.3429257,4.81539568 L71.3429257,28.117506 C71.3429257,28.6738129 73.3573141,28.6738129 73.3573141,28.117506 L73.3573141,4.81539568 C73.3573141,2.2042446 71.3132134,0 68.7020624,0 L9.78119904,0 C7.1693765,0 5.03597122,2.2042446 5.03597122,4.81539568 L5.03597122,45.8971703 C2.24837204,46.0582168 0.0915808449,48.4023465 0.162742258,51.1936869 C0.23390367,53.9850273 2.50733632,56.2162144 5.29952038,56.235012 L5.29952038,56.235012 Z" fill="#0071DC" class="primary-fill-color"></path><path d="M38.9448441,17.869976 C40.6128129,17.8719186 41.9644843,19.22359 41.9664269,20.8915588 C41.9664269,21.4478168 42.4173631,21.898753 42.9736211,21.898753 C43.5298791,21.898753 43.9808153,21.4478168 43.9808153,20.8915588 C43.9780547,18.4992783 42.2953345,16.4379462 39.9520384,15.956307 L39.9520384,14.6484652 C39.9520384,14.0922072 39.5011021,13.641271 38.9448441,13.641271 C38.3885861,13.641271 37.9376499,14.0922072 37.9376499,14.6484652 L37.9376499,15.956307 C35.4021464,16.4711562 33.6692929,18.8235215 33.9293079,21.3976699 C34.1893229,23.9718183 36.3575983,25.9301302 38.9448441,25.92753 C40.5876765,25.9554573 41.9070902,27.2910179 41.9150336,28.9340684 C41.922977,30.5771189 40.6165383,31.9253743 38.9740528,31.9691847 C38.9641487,31.9691847 38.9547482,31.9678417 38.9448441,31.9678417 C38.93494,31.9678417 38.9255396,31.9690168 38.9156355,31.9691847 C37.2594427,31.9518095 35.9253768,30.6053953 35.9232614,28.9491127 C35.9232614,28.3928547 35.4723252,27.9419185 34.9160671,27.9419185 C34.3598091,27.9419185 33.9088729,28.3928547 33.9088729,28.9491127 C33.9116336,31.3413931 35.5943537,33.4027253 37.9376499,33.8843645 L37.9376499,35.3755156 C37.9376499,35.9317736 38.3885861,36.3827098 38.9448441,36.3827098 C39.5011021,36.3827098 39.9520384,35.9317736 39.9520384,35.3755156 L39.9520384,33.883693 C42.4875419,33.3688438 44.2203953,31.0164785 43.9603803,28.4423301 C43.7003653,25.8681817 41.53209,23.9098698 38.9448441,23.91247 C37.2760701,23.91247 35.9232614,22.5596614 35.9232614,20.8908873 C35.9232614,19.2221132 37.2760701,17.8693046 38.9448441,17.8693046 L38.9448441,17.869976 Z" fill="#0071DC" class="primary-fill-color"></path><path d="M81.0791367,32.5850839 C81.0791367,29.5150959 78.5904197,27.0263789 75.5204317,27.0263789 L61.793717,27.0263789 C58.723729,27.0263789 56.235012,29.5150959 56.235012,32.5850839 L56.235012,64.441295 C56.235012,67.511283 58.723729,70 61.793717,70 L75.5204317,70 C78.5904197,70 81.0791367,67.511283 81.0791367,64.441295 L81.0791367,32.5850839 Z M79.0647482,34.41247 L79.0647482,58.9208633 L58.2494005,58.9208633 L58.2494005,34.41247 L79.0647482,34.41247 Z M75.5204317,68.1534772 L61.8658993,68.1534772 C59.8797942,68.1195371 58.2791044,66.5154295 58.2494005,64.5292566 L58.2494005,60.9352518 L79.0647482,60.9352518 L79.0647482,64.5292566 C79.0647482,66.4835492 77.4747242,68.1534772 75.5204317,68.1534772 Z M79.0541727,32.3980815 L58.3321583,32.3980815 C58.4456351,30.524633 59.9890984,29.0582292 61.8658993,29.0407674 L75.5204317,29.0407674 C77.3972326,29.0582292 78.9406958,30.524633 79.0541727,32.3980815 Z" fill="#FFC221" class="primary-fill-color"></path><path d="M70.7982014,63.4532374 L66.5879616,63.4532374 C66.0317036,63.4532374 65.5807674,63.9041736 65.5807674,64.4604317 C65.5807674,65.0166897 66.0317036,65.4676259 66.5879616,65.4676259 L70.7982014,65.4676259 C71.3544595,65.4676259 71.8053957,65.0166897 71.8053957,64.4604317 C71.8053957,63.9041736 71.3544595,63.4532374 70.7982014,63.4532374 L70.7982014,63.4532374 Z" fill="#FFC221" class="secondary-fill-color"></path><path d="M68.6931655,47.8585132 C69.7884632,47.8766271 70.6685107,48.7666995 70.6742175,49.8621322 C70.6799243,50.9575648 69.8091982,51.8567582 68.7141487,51.886283 C68.7070983,51.886283 68.7002158,51.8851079 68.6931655,51.8851079 C68.6861151,51.8851079 68.6792326,51.8861151 68.6720144,51.886283 C67.5685809,51.8736972 66.6802671,50.9764059 66.678777,49.8729017 C66.678777,49.3166437 66.2278408,48.8657074 65.6715827,48.8657074 C65.1117637,48.8642641 64.6548019,49.313146 64.646259,49.8729017 C64.6632053,51.6984647 65.8893619,53.2911732 67.6498801,53.7744365 L67.6498801,54.6923261 C67.6498801,55.2485842 68.1008163,55.6995204 68.6570743,55.6995204 C69.2133324,55.6995204 69.6642686,55.2485842 69.6642686,54.6923261 L69.6642686,53.7744365 C71.4708228,53.3535727 72.7376189,51.7275233 72.7038129,49.8729017 C72.705576,47.6506784 70.9063223,45.8473673 68.6841007,45.8441247 C67.5726221,45.8397714 66.6747094,44.9359804 66.6776088,43.824497 C66.6805082,42.7130137 67.5831238,41.8139194 68.69461,41.8153649 C69.8060962,41.8168103 70.7063704,42.7182491 70.7063789,43.8297362 C70.7063789,44.3859942 71.1573151,44.8369305 71.7135731,44.8369305 C71.9788784,44.8362424 72.2328588,44.7293371 72.4187954,44.5400887 C72.6047319,44.3508403 72.707137,44.0950123 72.7031415,43.8297362 C72.7369062,41.9754592 71.470441,40.3496854 69.6642686,39.928705 L69.6642686,39.1481295 C69.6642686,38.5918715 69.2133324,38.1409353 68.6570743,38.1409353 C68.1008163,38.1409353 67.6498801,38.5918715 67.6498801,39.1481295 L67.6498801,39.928705 C65.6877852,40.4460939 64.4159836,42.3411302 64.6806642,44.3529582 C64.9453448,46.3647862 66.6640158,47.8663893 68.6931655,47.8586811 L68.6931655,47.8585132 Z" fill="#FFC221" class="secondary-fill-color"></path></svg>