<svg xmlns="http://www.w3.org/2000/svg" xmlns:xlink="http://www.w3.org/1999/xlink" width="84px" height="70px" viewBox="0 0 84 70"><path d="M13.3358994,11.2841202 C13.3385606,9.00347852 15.1860933,7.15594586 17.4667352,7.15328467 L81.7518248,7.15328467 L81.7518248,6.17463119 C81.7491636,3.89398946 79.901631,2.04645681 77.6216545,2.04379562 L12.3572461,2.04379562 C10.0772697,2.04645681 8.22907158,3.89398946 8.22641039,6.17463119 L8.22641039,31.278988 C9.78320783,30.0455254 11.5030033,29.0329418 13.3358994,28.267849 L13.3358994,11.2841202 Z" fill="#D3E6FA"></path><g transform="translate(6.131387, 0.000000)" fill="#0071DC" class="primary-fill-color"><path d="M71.4902676,0 L6.22585927,0 C2.8175373,0.00399178832 0.055219781,2.76564397 0.0512279075,6.17463119 L0.0512279075,33.5256995 L2.09502353,33.5256995 L2.09502353,6.17463119 C2.09768472,3.89398946 3.9458828,2.04645681 6.22585927,2.04379562 L71.4902676,2.04379562 C73.7702441,2.04645681 75.6177768,3.89398946 75.620438,6.17463119 L75.620438,43.5969814 C75.618442,45.8776233 73.7702441,47.7258212 71.4902676,47.7284824 L36.1037295,47.7284824 L36.1037295,49.772278 L71.4902676,49.772278 C74.8985896,49.7682863 77.6609071,47.0059688 77.6642336,43.5969814 L77.6642336,6.17463119 C77.6602417,2.76630939 74.8985896,0.00399178832 71.4902676,0 Z"></path><path d="M56.196396,43.0501064 C59.4124469,44.5962591 63.2705101,43.7140738 65.4946016,40.9238139 C67.718693,38.1335539 67.718693,34.1763609 65.4946016,31.386101 C63.2705101,28.595841 59.4124469,27.7136557 56.196396,29.2598084 C52.9803451,27.7136557 49.1222818,28.595841 46.8981904,31.386101 C44.674099,34.1763609 44.674099,38.1335539 46.8981904,40.9238139 C49.1222818,43.7140738 52.9803451,44.5962591 56.196396,43.0501064 Z M59.5109108,30.5484907 C61.6691379,30.5464947 63.6370894,31.7839493 64.5711679,33.7299461 C65.5045811,35.6759428 65.2384619,37.9851924 63.8865762,39.6677311 C62.5346906,41.3502699 60.3365458,42.1073791 58.2355345,41.6143933 C59.7045126,40.1780148 60.5328086,38.2100631 60.5328086,36.1556227 C60.5328086,34.1011823 59.7045126,32.1332307 58.2355345,30.6975174 C58.6533417,30.5990533 59.0811283,30.5484907 59.5109108,30.5478254 L59.5109108,30.5484907 Z M53.903779,36.1556227 C53.9044442,34.3699627 54.7560257,32.6914157 56.196396,31.6369183 C57.6374315,32.6914157 58.489013,34.3699627 58.489013,36.1556227 C58.489013,37.9412827 57.6374315,39.6198297 56.196396,40.6743271 C54.7553605,39.6191644 53.903779,37.9406174 53.903779,36.1549574 L53.903779,36.1556227 Z M47.2747486,36.1556227 C47.2740837,34.4438108 48.0551437,32.825806 49.3963846,31.7619943 C50.7376255,30.6981829 52.4913512,30.3063222 54.1572575,30.6968522 C52.6882794,32.1332307 51.8606486,34.100517 51.8606486,36.1556227 C51.8606486,38.2100631 52.6882794,40.1773495 54.1572575,41.6137279 C52.4913512,42.0049232 50.7376255,41.6123974 49.3963846,40.5485858 C48.0551437,39.4847741 47.2740837,37.8667693 47.2747486,36.1549574 L47.2747486,36.1556227 Z"></path><path d="M35.0632034,9.34411112 L7.79662793,9.34411112 C7.23245518,9.34411112 6.77473012,9.80117092 6.77473012,10.3660089 C6.77473012,10.9301817 7.23245518,11.3879067 7.79662793,11.3879067 L35.0632034,11.3879067 C35.6273761,11.3879067 36.0851012,10.9301817 36.0851012,10.3660089 C36.0851012,9.80117092 35.6273761,9.34411112 35.0632034,9.34411112 Z"></path><path d="M41.7195103,11.3879067 C42.2843483,11.3879067 42.7414082,10.9301817 42.7414082,10.3660089 C42.7414082,9.80117092 42.2843483,9.34411112 41.7195103,9.34411112 L38.7669177,9.34411112 C38.2027449,9.34411112 37.7450199,9.80117092 37.7450199,10.3660089 C37.7450199,10.9301817 38.2027449,11.3879067 38.7669177,11.3879067 L41.7195103,11.3879067 Z"></path><path d="M7.79662793,16.5406403 L9.07067358,16.5406403 C9.63551175,16.5406403 10.0925714,16.0829152 10.0925714,15.5187425 C10.0925714,14.9539043 9.63551175,14.4968447 9.07067358,14.4968447 L7.79662793,14.4968447 C7.23245518,14.4968447 6.77473012,14.9539043 6.77473012,15.5187425 C6.77473012,16.0829152 7.23245518,16.5406403 7.79662793,16.5406403 Z"></path><path d="M12.8848274,14.4968447 C12.3206547,14.4968447 11.8629296,14.9539043 11.8629296,15.5187425 C11.8629296,16.0829152 12.3206547,16.5406403 12.8848274,16.5406403 L29.91047,16.5406403 C30.475308,16.5406403 30.9323678,16.0829152 30.9323678,15.5187425 C30.9323678,14.9539043 30.475308,14.4968447 29.91047,14.4968447 L12.8848274,14.4968447 Z"></path><path d="M32.5929517,15.5187425 C32.5929517,16.0829152 33.0500114,16.5406403 33.6148495,16.5406403 L41.7195103,16.5406403 C42.2843483,16.5406403 42.7414082,16.0829152 42.7414082,15.5187425 C42.7414082,14.9539043 42.2843483,14.4968447 41.7195103,14.4968447 L33.6148495,14.4968447 C33.0500114,14.4968447 32.5929517,14.9539043 32.5929517,15.5187425 Z"></path></g><path d="M21.6315008,26.6119221 C9.68474372,26.6119221 0,36.2966659 0,48.243423 C0,60.1901802 9.68474372,69.874924 21.6315008,69.874924 C33.5782581,69.874924 43.2636671,60.1901802 43.2636671,48.243423 C43.2496959,36.3019882 33.5729357,26.6252281 21.6315008,26.6119221 Z M21.6315008,67.8311283 C10.8137546,67.8311283 2.04379562,59.0611695 2.04379562,48.243423 C2.04379562,37.4250114 10.8137546,28.6557178 21.6315008,28.6557178 C32.4499126,28.6557178 41.2198715,37.4256768 41.2198715,48.243423 C41.2072308,59.0565124 32.4445902,67.8191529 21.6315008,67.8311283 Z" fill="#FFC221" class="secondary-fill-color"></path><path d="M21.6315008,39.2206509 C23.8090215,39.2226468 25.5733919,40.9870172 25.5760531,43.1638725 C25.5760531,43.7280452 26.0331127,44.1857703 26.5979509,44.1857703 C27.1621237,44.1857703 27.6198487,43.7280452 27.6198487,43.1638725 C27.6158569,40.2525282 25.5214986,37.7649787 22.6533986,37.2646746 L22.6533986,35.4697003 C22.6533986,34.9055276 22.196339,34.4478025 21.6315008,34.4478025 C21.0673281,34.4478025 20.609603,34.9055276 20.609603,35.4697003 L20.609603,37.2653398 C17.5472362,37.7955823 15.3996541,40.5811853 15.6657733,43.6781478 C15.9318925,46.7744449 18.5232283,49.1528855 21.6315008,49.1522202 C23.805695,49.1442366 25.5767184,50.897297 25.5900243,53.0721563 C25.6033303,55.2463504 23.8542618,57.0207003 21.6800677,57.0393287 C21.6641006,57.0393287 21.6481334,57.0373327 21.6315008,57.0373327 C21.6155337,57.0373327 21.5995665,57.0386634 21.5835994,57.0393287 C19.4253727,57.0107208 17.6902753,55.2549992 17.687614,53.0967723 C17.687614,52.5319343 17.2298889,52.0748745 16.6657162,52.0748745 C16.1015434,52.0748745 15.6438183,52.5319343 15.6438183,53.0967723 C15.6478102,56.0074513 17.7421685,58.4950008 20.609603,58.9953049 L20.609603,61.0171456 C20.609603,61.5813183 21.0673281,62.0390434 21.6315008,62.0390434 C22.196339,62.0390434 22.6533986,61.5813183 22.6533986,61.0171456 L22.6533986,58.9953049 C25.7157656,58.4650624 27.8633477,55.6794594 27.5972285,52.5831622 C27.3311093,49.4868652 24.7397733,47.1084246 21.6315008,47.1084246 C20.216412,47.1177388 18.9044442,46.3679479 18.1945712,45.1437995 C17.4840328,43.919651 17.4840328,42.4087591 18.1945712,41.1846107 C18.9044442,39.9604623 20.216412,39.2113366 21.6315008,39.2206509 Z" fill="#FFC221" class="secondary-fill-color"></path></svg>