<svg xmlns="http://www.w3.org/2000/svg" xmlns:xlink="http://www.w3.org/1999/xlink" width="31px" height="20px" viewBox="0 0 31 20"><path d="M27.1764706,0 L2.94117647,0 C1.33211765,0 0,1.30670588 0,2.94117647 L0,17.0588235 C0,18.6805882 1.31941176,20 2.94117647,20 L27.1764706,20 C28.7982353,20 30.1176471,18.6805882 30.1176471,17.0588235 L30.1176471,2.94117647 C30.1176471,1.32829412 28.8047647,0 27.1764706,0 Z M24.8969412,2.35294118 L15.0588235,8.606 L5.22070588,2.35294118 L24.8969412,2.35294118 Z M27.7647059,17.0588235 C27.7647059,17.3831765 27.5008235,17.6470588 27.1764706,17.6470588 L2.94117647,17.6470588 C2.61682353,17.6470588 2.35294118,17.3831765 2.35294118,17.0588235 L2.35294118,3.31823529 L14.4277059,10.9928824 C14.8127059,11.2376471 15.3047647,11.2377059 15.6898824,10.9928824 L27.7647059,3.31823529 L27.7647059,17.0588235 Z"></path></svg>