<svg xmlns="http://www.w3.org/2000/svg" xmlns:xlink="http://www.w3.org/1999/xlink" width="34px" height="32px" viewBox="0 0 34 32"><g fill-rule="nonzero"><path d="M30.090535,11.2869136 L19.6685432,11.2869136 L19.6685432,0.0496460905 L3.62139918,0.0496460905 C1.62455967,0.0496460905 0,1.67420576 0,3.67104527 L0,17.476214 L8.48026337,17.476214 L14.0595885,19.8673251 L14.0595885,28.7134815 L17.6952099,28.7134815 L17.6952099,31.9503539 L25.2478683,28.7134815 L33.7119342,28.7134815 L33.7119342,14.9083128 C33.7119342,12.9114733 32.0874403,11.2869136 30.090535,11.2869136 Z M14.0576132,17.717465 L8.88566255,15.5009053 L1.97530864,15.5009053 L1.97530864,3.67104527 C1.97530864,2.76339095 2.71374486,2.02495473 3.62139918,2.02495473 L17.6932346,2.02495473 L17.6932346,15.5009053 L14.0576132,15.5009053 L14.0576132,17.717465 Z M19.6705185,28.9547325 L19.6705185,26.7381728 L16.0348971,26.7381728 L16.0348971,17.476214 L19.6686091,17.476214 L19.6686091,13.2622222 L30.090535,13.2622222 C30.9981893,13.2622222 31.7366255,14.0006584 31.7366255,14.9083128 L31.7366255,26.7382387 L24.8423374,26.7382387 L19.6705185,28.9547325 Z"></path><path d="M23.060214,15.1539095 L19.6483292,24.1123292 L21.4942551,24.8153416 L22.3053827,22.6854979 L25.4702881,22.6854979 L26.2734486,24.8135638 L28.1214815,24.1161481 L24.7386337,15.1521317 L23.060214,15.1539095 Z M23.0577119,20.7102551 L23.8951111,18.5116049 L24.7248724,20.7102551 L23.0577119,20.7102551 Z"></path><path d="M14.5501235,12.2945844 L13.369679,11.1141399 C13.8388148,10.3788642 14.112,9.50702881 14.112,8.57204938 C14.112,5.95812346 11.9854486,3.83150617 9.37145679,3.83150617 C6.75746502,3.83150617 4.63091358,5.95805761 4.63091358,8.57204938 C4.63091358,11.1860412 6.75746502,13.3125926 9.37145679,13.3125926 C10.3371193,13.3125926 11.2358189,13.0216955 11.9857778,12.5239177 L13.153251,13.6913909 L14.5501235,12.2945844 Z M9.37152263,11.3372181 C7.84678189,11.3372181 6.60628807,10.0967901 6.60628807,8.57198354 C6.60628807,7.0472428 7.84671605,5.80674897 9.37152263,5.80674897 C10.8963292,5.80674897 12.1367572,7.04717695 12.1367572,8.57198354 C12.1367572,8.95749794 12.0572181,9.32470782 11.9140741,9.65846914 L10.7521975,8.49659259 L9.35545679,9.89333333 L10.5396543,11.0775309 C10.1844938,11.243786 9.78877366,11.3372181 9.37152263,11.3372181 Z"></path></g></svg>