<svg xmlns="http://www.w3.org/2000/svg" xmlns:xlink="http://www.w3.org/1999/xlink" width="40px" height="28px" viewBox="0 0 40 28"><g fill-rule="nonzero"><path d="M38.2666667,24.8888889 L3.11111111,24.8888889 L3.11111111,1.55555556 C3.11111111,0.696422222 2.41468889,0 1.55555556,0 C0.696422222,0 0,0.696422222 0,1.55555556 L0,26.4444444 C0,27.3035778 0.696422222,28 1.55555556,28 L38.2666667,28 C39.1258,28 39.8222222,27.3035778 39.8222222,26.4444444 C39.8222222,25.5853111 39.1258,24.8888889 38.2666667,24.8888889 Z"></path><path d="M32.5250333,7.32324444 C32.5232444,7.322 32.5213778,7.32091111 32.5195889,7.31966667 C32.5067556,7.30986667 32.4950889,7.29913333 32.4818667,7.28972222 C31.8934778,6.86941111 31.1131333,6.91918889 30.5827667,7.36174444 L26.4789778,9.2526 C25.3921889,9.75341111 25.2563889,11.2458111 26.2318778,11.9355444 L26.9095556,12.4146556 L23.8,16.7681889 L17.2879778,7.65146667 C16.9960778,7.24258889 16.5245889,7 16.0222222,7 C15.5198556,7 15.0483667,7.24258889 14.7564667,7.65138889 L6.97868889,18.5402778 C6.47927778,19.2393444 6.64121111,20.2108667 7.34027778,20.7102 C8.03973333,21.2098444 9.01125556,21.0471333 9.5102,20.3485333 L16.0222222,11.2318111 L22.5342444,20.3485333 C22.8261444,20.7574111 23.2976333,21.0000592 23.8,21.0000592 C24.3023667,21.0000592 24.7738556,20.7574111 25.0657556,20.3486111 L29.4498556,14.2108556 L30.2748444,14.7941889 C31.2455889,15.4805 32.6114444,14.8662111 32.7218889,13.6666444 L33.1759556,8.73607778 C33.2269,8.18268889 32.9787889,7.64407778 32.5250333,7.32324444 Z"></path></g></svg>