<svg xmlns="http://www.w3.org/2000/svg" xmlns:xlink="http://www.w3.org/1999/xlink" width="33px" height="28px" viewBox="0 0 33 28"><path d="M31.0970655,0.0316027088 L1.26410835,0.0316027088 C0.565886005,0.0316027088 0,0.597488713 0,1.29571106 L0,21.7532802 C0,22.4515026 0.565886005,23.0173886 1.26410835,23.0173886 L24.4802483,23.0173886 L30.306257,27.6894047 C31.1286682,28.3488643 32.3611738,27.7666831 32.3611738,26.7030545 L32.3611738,1.29571106 C32.3611738,0.597488713 31.7952878,0.0316027088 31.0970655,0.0316027088 Z M29.8329571,24.0691662 L25.7154698,20.7671769 C25.4910412,20.5871896 25.2122954,20.4891719 24.9246614,20.4891719 L2.5282167,20.4891719 L2.5282167,2.55957253 L29.8329571,2.55957253 L29.8329571,24.0691662 Z M11.3159918,13.7185384 L11.1364983,17.2792748 C11.0905756,18.189581 11.9969314,18.8492875 12.8497108,18.5241253 L16.1805869,17.252857 L19.5114631,18.5241253 C20.3632548,18.8492875 21.2705982,18.1905686 21.2246755,17.2792748 L21.045182,13.7185384 L23.2832957,10.9434255 C23.855601,10.2338459 23.5096995,9.16725448 22.628774,8.92949353 L19.1867946,7.99992943 L17.2392777,5.01372039 C16.7410412,4.25007057 15.6201326,4.24957675 15.1216493,5.01372039 L13.1741324,7.99992943 L9.7321529,8.92949353 C8.8519681,9.16725448 8.50483213,10.2333521 9.07763122,10.9434255 L11.3159918,13.7185384 Z M14.2989913,10.3150748 C14.5989701,10.2340928 14.8587049,10.0454642 15.0283225,9.78523559 L16.1805869,8.01819977 L17.3328513,9.78523559 C17.5024689,10.0454642 17.7622038,10.2338459 18.0621825,10.3148278 L20.0985821,10.8649126 L18.774478,12.5070189 C18.57943,12.7487302 18.4801777,13.0538939 18.4959791,13.3642424 L18.6021445,15.4710074 L16.6314193,14.7187147 C16.3410694,14.6081053 16.0201044,14.6081053 15.7297545,14.7187147 L13.7590293,15.4710074 L13.8651947,13.3642424 C13.8809961,13.0538939 13.7817438,12.7487302 13.5866959,12.5070189 L12.2625917,10.8649126 L14.2989913,10.3150748 Z"></path></svg>