<svg xmlns="http://www.w3.org/2000/svg" xmlns:xlink="http://www.w3.org/1999/xlink" width="48px" height="48px" viewBox="0 0 48 48"><path d="M28.216875,15.5821875 L28.216875,15.56025 C28.216875,13.2339375 26.3244375,11.3415 23.998125,11.3415 C21.6718125,11.3415 19.779375,13.2339375 19.779375,15.56025 L19.779375,15.580875 C18.0435,16.889625 16.966875,18.9550313 16.966875,21.18525 C16.966875,23.2726875 17.641125,24.7242188 18.5571562,25.7404688 C18.0339375,26.3460937 17.690625,27.08625 17.5710937,27.891 C17.2857187,29.794125 18.2950312,31.3330313 19.779375,32.4132187 L19.779375,32.4351562 C19.779375,34.7614688 21.6718125,36.6539062 23.998125,36.6539062 C26.3244375,36.6539062 28.216875,34.7614688 28.216875,32.4351562 L28.216875,32.4145312 C29.95275,31.1057812 31.029375,29.040375 31.029375,26.8101562 C31.029375,24.7227187 30.355125,23.2711875 29.4390937,22.2549375 C30.9486562,20.5077188 31.0183125,17.620875 28.216875,15.5821875 Z M47.5844063,23.00175 L44.7735938,20.1909375 C44.2243125,19.6416562 43.3343438,19.6416562 42.7850625,20.1909375 C42.2357813,20.7402188 42.2357813,21.6301875 42.7850625,22.1794687 L43.1970938,22.5915 L38.060625,22.5915 C37.2833438,22.5915 36.654375,23.2204688 36.654375,23.99775 C36.654375,24.7750313 37.2833438,25.404 38.060625,25.404 L43.1970938,25.404 L42.7850625,25.8160312 C42.2357813,26.3653125 42.2357813,27.2552812 42.7850625,27.8045625 C43.3343438,28.3538437 44.2242188,28.3538437 44.7735938,27.8045625 L47.5844063,24.99375 C48.1287188,24.4508437 48.13725,23.5530938 47.5844063,23.00175 L47.5844063,23.00175 Z M4.79915625,25.404 L9.935625,25.404 C10.7129063,25.404 11.341875,24.7750312 11.341875,23.99775 C11.341875,23.2204687 10.7129063,22.5915 9.935625,22.5915 L4.79915625,22.5915 L5.2111875,22.1794687 C5.76046875,21.6301875 5.76046875,20.7402187 5.2111875,20.1909375 C4.66190625,19.6416563 3.7719375,19.6416562 3.22265625,20.1909375 L0.41184375,23.00175 C-0.13246875,23.5446562 -0.141,24.4423125 0.41184375,24.99375 L3.22265625,27.8045625 C3.7719375,28.3538437 4.6618125,28.3538437 5.2111875,27.8045625 C5.76046875,27.2552812 5.76046875,26.3653125 5.2111875,25.8160312 L4.79915625,25.404 Z M39.9076875,34.524 C39.1304063,34.524 38.5014375,35.1529687 38.5014375,35.93025 L38.5014375,36.5125312 L34.9364063,32.9475 C34.387125,32.3982188 33.4971563,32.3982188 32.947875,32.9475 C32.3985938,33.4967812 32.3985938,34.38675 32.947875,34.9360312 L36.5129063,38.5010625 L35.930625,38.5010625 C35.1533438,38.5010625 34.524375,39.1300312 34.524375,39.9073125 C34.524375,40.6845937 35.1533438,41.3135625 35.930625,41.3135625 L39.9076875,41.3135625 C40.677,41.3135625 41.3139375,40.6829062 41.3139375,39.9073125 L41.3139375,35.93025 C41.3139375,35.1529687 40.6849688,34.524 39.9076875,34.524 Z M11.4833438,9.4944375 L12.065625,9.4944375 C12.8429063,9.4944375 13.471875,8.86546875 13.471875,8.0881875 C13.471875,7.31090625 12.8429063,6.6819375 12.065625,6.6819375 L8.0885625,6.6819375 C7.3130625,6.6819375 6.6823125,7.3185 6.6823125,8.0881875 L6.6823125,12.06525 C6.6823125,12.8425312 7.31128125,13.4715 8.0885625,13.4715 C8.86584375,13.4715 9.4948125,12.8425312 9.4948125,12.06525 L9.4948125,11.4829687 L13.0598438,15.048 C13.609125,15.5972812 14.499,15.5972812 15.048375,15.048 C15.5976563,14.4987187 15.5976563,13.60875 15.048375,13.0594687 L11.4833438,9.4944375 Z M13.0598438,32.9475 L9.4948125,36.5125312 L9.4948125,35.93025 C9.4948125,35.1529687 8.86584375,34.524 8.0885625,34.524 C7.31128125,34.524 6.6823125,35.1529687 6.6823125,35.93025 L6.6823125,39.9073125 C6.6823125,40.6827187 7.318875,41.3135625 8.0885625,41.3135625 L12.065625,41.3135625 C12.8429063,41.3135625 13.471875,40.6845937 13.471875,39.9073125 C13.471875,39.1300312 12.8429063,38.5010625 12.065625,38.5010625 L11.4833438,38.5010625 L15.048375,34.9360312 C15.5976563,34.38675 15.5976563,33.4967812 15.048375,32.9475 C14.4990938,32.3982187 13.6092188,32.398125 13.0598438,32.9475 L13.0598438,32.9475 Z M34.9364063,15.048 L38.5014375,11.4829687 L38.5014375,12.06525 C38.5014375,12.8425312 39.1304063,13.4715 39.9076875,13.4715 C40.6849688,13.4715 41.3139375,12.8425312 41.3139375,12.06525 L41.3139375,8.0881875 C41.3139375,7.318875 40.6832813,6.6819375 39.9076875,6.6819375 L35.930625,6.6819375 C35.1533438,6.6819375 34.524375,7.31090625 34.524375,8.0881875 C34.524375,8.86546875 35.1533438,9.4944375 35.930625,9.4944375 L36.5129063,9.4944375 L32.947875,13.0594687 C32.3985938,13.60875 32.3985938,14.4987187 32.947875,15.048 C33.4971563,15.5972812 34.3870313,15.5972812 34.9364063,15.048 Z M22.591875,38.06025 L22.591875,43.1967187 L22.1798437,42.7846875 C21.6305625,42.2354062 20.7405937,42.2354062 20.1913125,42.7846875 C19.6420313,43.3339687 19.6420312,44.2239375 20.1913125,44.7732187 L23.002125,47.5840313 C23.5405313,48.1238437 24.4360312,48.1435312 24.994125,47.5840313 L27.8049375,44.7732188 C28.3542187,44.2239375 28.3542187,43.3339688 27.8049375,42.7846875 C27.2556563,42.2354062 26.3656875,42.2354063 25.8164062,42.7846875 L25.404375,43.1967188 L25.404375,38.06025 C25.404375,37.2829688 24.7754062,36.654 23.998125,36.654 C23.2208438,36.654 22.591875,37.2829688 22.591875,38.06025 L22.591875,38.06025 Z M25.404375,9.93525 L25.404375,4.79878125 L25.8164063,5.2108125 C26.3656875,5.76009375 27.2555625,5.76009375 27.8049375,5.2108125 C28.3542188,4.66153125 28.3542188,3.7715625 27.8049375,3.22228125 L24.994125,0.41146875 C24.4513125,-0.13284375 23.5535625,-0.141375 23.002125,0.41146875 L20.1914063,3.2221875 C19.642125,3.77146875 19.642125,4.6614375 20.1914063,5.21071875 C20.7406875,5.76 21.6306563,5.76 22.1799375,5.21071875 L22.5919688,4.7986875 L22.5919688,9.93515625 C22.5919688,10.7124375 23.2209375,11.3414062 23.9982188,11.3414062 C24.7754063,11.3414062 25.404375,10.7125312 25.404375,9.93525 L25.404375,9.93525 Z" fill="#D3E6FA"></path><path d="M23.998125,8.529 C15.4761562,8.529 8.529375,15.4757812 8.529375,23.99775 C8.529375,32.5195312 15.4761562,39.4665 23.998125,39.4665 C32.5200938,39.4665 39.466875,32.5195312 39.466875,23.99775 C39.466875,15.4757812 32.5200938,8.529 23.998125,8.529 Z M25.404375,30.7757812 L25.404375,32.43525 C25.404375,33.2226562 24.7857188,33.8415 23.998125,33.8415 C23.2105312,33.8415 22.591875,33.2226562 22.591875,32.43525 L22.591875,30.7476562 C21.8324062,30.4664062 21.1292812,30.0165 20.623125,29.3414062 C20.1450938,28.72275 20.285625,27.850875 20.9044687,27.37275 C21.523125,26.9226562 22.423125,27.0350625 22.873125,27.6539063 C23.1544687,28.0195312 23.5483125,28.2164062 23.9982187,28.2164062 C24.7858125,28.2164062 25.4044687,27.5975625 25.4044687,26.8101562 C25.4044687,25.8820313 25.2357187,25.7414063 23.6607188,25.3757812 C22.2263437,25.0101562 19.7794687,24.4194375 19.7794687,21.1851562 C19.7794687,19.3569375 20.960625,17.8101562 22.5919687,17.2194375 L22.5919687,15.5601563 C22.5919687,14.7725625 23.210625,14.1539063 23.9982187,14.1539063 C24.7858125,14.1539063 25.4044687,14.7725625 25.4044687,15.5601563 L25.4044687,17.2475625 C26.1639375,17.5289062 26.8670625,17.9788125 27.3732187,18.6538125 C27.85125,19.2726563 27.7107188,20.1445312 27.091875,20.6225625 C26.4732188,21.1006875 25.6013438,20.9600625 25.1232187,20.3414062 C24.3919687,19.3569375 22.591875,19.9757812 22.591875,21.1851562 C22.591875,22.1131875 22.760625,22.2539062 24.335625,22.6195313 C25.77,22.9851563 28.216875,23.5756875 28.216875,26.8101562 C28.216875,28.6382812 27.0357187,30.18525 25.404375,30.7757812 L25.404375,30.7757812 Z" fill="#0071DC" class="primary-fill-color"></path></svg>