<svg xmlns="http://www.w3.org/2000/svg" xmlns:xlink="http://www.w3.org/1999/xlink" width="48px" height="48px" viewBox="0 0 48 48"><path d="M34.744125,13.2561562 C34.3514062,12.86475 33.7635937,12.7425 33.2445,12.9375937 L0.90075,25.3933125 C0.328125,25.614375 -0.0345,26.18025 0.002625,26.7927187 C0.03975,27.403875 0.4695,27.9215625 1.0655625,28.069875 L16.1566875,31.8436875 L19.9305,46.9348125 C20.0788125,47.5307813 20.5965,47.960625 21.2076562,47.99775 C21.867,48.0291562 22.39875,47.6400937 22.6070625,47.099625 L35.0627812,14.755875 C35.2618125,14.2366875 35.1368437,13.6489688 34.744125,13.2561562 Z" fill="#0071DC" class="primary-fill-color"></path><path d="M39.3972188,10.5915938 L43.3756875,6.613125 C43.9249688,6.06384375 43.9249688,5.173875 43.3756875,4.62459375 C42.8264063,4.0753125 41.9364375,4.0753125 41.3871563,4.62459375 L37.4086875,8.6030625 C36.8594063,9.15234375 36.8594063,10.0423125 37.4086875,10.5915938 C37.9580625,11.1409688 38.8479375,11.1409688 39.3972188,10.5915938 Z M32.4374063,0.00046875 C31.660125,0.00046875 31.0311563,0.6294375 31.0311563,1.40671875 L31.0311563,7.12546875 C31.0311563,7.90275 31.660125,8.53171875 32.4374063,8.53171875 C33.2146875,8.53171875 33.8436563,7.90275 33.8436563,7.12546875 L33.8436563,1.40671875 C33.8436563,0.6294375 33.2146875,0.00046875 32.4374063,0.00046875 Z M23.4876563,4.6246875 C22.938375,4.07540625 22.0484063,4.07540625 21.499125,4.6246875 C20.9498437,5.17396875 20.9498437,6.0639375 21.499125,6.61321875 L25.4775938,10.5916875 C26.026875,11.1409687 26.9168438,11.1409687 27.466125,10.5916875 C28.0154063,10.0424063 28.0154063,9.1524375 27.466125,8.60315625 L23.4876563,4.6246875 Z M39.3972188,20.53425 C38.8479375,19.9849688 37.9579688,19.9849688 37.4086875,20.53425 C36.8594062,21.0835313 36.8594063,21.9735 37.4086875,22.5227812 L41.3871563,26.50125 C41.9364375,27.0505312 42.8264062,27.0505312 43.3756875,26.50125 C43.9249688,25.9519688 43.9249688,25.062 43.3756875,24.5127188 L39.3972188,20.53425 Z M46.5936563,14.1567187 L40.8749063,14.1567187 C40.097625,14.1567187 39.4686563,14.7856875 39.4686563,15.5629687 C39.4686563,16.34025 40.097625,16.9692187 40.8749063,16.9692187 L46.5936563,16.9692187 C47.3709375,16.9692187 47.9999063,16.34025 47.9999063,15.5629687 C47.9999063,14.7856875 47.3709375,14.1567187 46.5936563,14.1567187 Z" fill="#B4D3F4"></path></svg>