<svg xmlns="http://www.w3.org/2000/svg" xmlns:xlink="http://www.w3.org/1999/xlink" width="59px" height="48px" viewBox="0 0 59 48"><path d="M47.8859857,11.9718385 L47.8859857,1.71055582 C47.8859857,1.18951069 47.6488361,0.696741093 47.2413492,0.372826603 C46.8338622,0.048912114 46.3027838,-0.0747933492 45.791658,0.0437814727 L1.32609976,10.3050641 C0.477605701,10.5004846 46.175772,13.6820523 46.175772,13.6820523 C47.1210641,13.6820523 47.8859857,12.9171306 47.8859857,11.9718385 Z M56.6650831,20.5229074 L54.9548694,20.5229074 L46.175772,17.1024798 L30.783848,29.0739762 L46.175772,41.0454727 L54.9548694,37.6250451 L56.6650831,37.6250451 C57.6229169,37.6250451 58.3752969,36.8724371 58.3752969,35.9148314 L58.3752969,22.2331211 C58.3752969,21.2752874 57.6229169,20.5229074 56.6650831,20.5229074 Z" fill="#E6F2FF"></path><path d="M54.9548694,11.9718385 C54.9548694,11.0140048 54.2024893,10.2616247 53.2446556,10.2616247 L1.71021378,10.2616247 C0.752380048,10.2616247 0,11.0140048 0,11.9718385 L0,46.176114 C0,47.1337197 0.752380048,47.8863278 1.71021378,47.8863278 L53.2446556,47.8863278 C54.2024893,47.8863278 54.9548694,47.1337197 54.9548694,46.176114 L54.9548694,37.6250451 L46.175772,37.6250451 C41.4555819,37.6250451 37.6247031,33.7941663 37.6247031,29.0739762 C37.6247031,24.3537862 41.4555819,20.5229074 46.175772,20.5229074 L54.9548694,20.5229074 L54.9548694,11.9718385 Z M44.4655582,29.0739762 C44.4655582,30.0184703 45.2312779,30.78419 46.175772,30.78419 C47.120266,30.78419 47.8859857,30.0184703 47.8859857,29.0739762 C47.8859857,28.1294822 47.120266,27.3637625 46.175772,27.3637625 C45.2312779,27.3637625 44.4655582,28.1294822 44.4655582,29.0739762 Z" fill="#0071DC" class="primary-fill-color"></path></svg>