<svg xmlns="http://www.w3.org/2000/svg" xmlns:xlink="http://www.w3.org/1999/xlink" width="52px" height="48px" viewBox="0 0 52 48"><path d="M6,6 L6,33 L45.2,33 L45.2,6 L6,6 Z M26.6605,36.4395 C26.0746,35.8536 25.1253,35.8536 24.5394,36.4395 L15.5394,45.4395 C15.1102,45.8687 14.9813,46.5132 15.2142,47.0743 C15.4456,47.6353 15.9935,48.0001 16.5999,48.0001 L34.5999,48.0001 C35.2063,48.0001 35.7542,47.6354 35.9856,47.0743 C36.2185,46.5133 36.0896,45.8687 35.6604,45.4395 L26.6605,36.4395 Z" fill="#0071DC" class="primary-fill-color"></path><path d="M49.7,0 L1.5,0 C0.6599,0 0,0.6599 0,1.5 L0,37.5 C0,38.3401 0.6599,39 1.5,39 L49.7,39 C50.5401,39 51.2,38.3401 51.2,37.5 L51.2,1.5 C51.2,0.6599 50.5401,0 49.7,0 Z M18.1,28.5 C18.1,29.3401 17.4401,30 16.6,30 L10.6,30 C9.7599,30 9.1,29.3401 9.1,28.5 L9.1,22.5 C9.1,21.6599 9.7599,21 10.6,21 L16.6,21 C17.4401,21 18.1,21.6599 18.1,22.5 L18.1,28.5 Z M18.1,16.5 C18.1,17.3401 17.4401,18 16.6,18 L10.6,18 C9.7599,18 9.1,17.3401 9.1,16.5 L9.1,10.5 C9.1,9.6599 9.7599,9 10.6,9 L16.6,9 C17.4401,9 18.1,9.6599 18.1,10.5 L18.1,16.5 Z M31.6,30 L22.6,30 C21.7599,30 21.1,29.3401 21.1,28.5 C21.1,27.6599 21.7599,27 22.6,27 L31.6,27 C32.4401,27 33.1,27.6599 33.1,28.5 C33.1,29.3401 32.4401,30 31.6,30 Z M40.6,24 L22.6,24 C21.7599,24 21.1,23.3401 21.1,22.5 C21.1,21.6599 21.7599,21 22.6,21 L40.6,21 C41.4401,21 42.1,21.6599 42.1,22.5 C42.1,23.3401 41.4401,24 40.6,24 Z M21.1,16.5 C21.1,15.6599 21.7599,15 22.6,15 L31.6,15 C32.4401,15 33.1,15.6599 33.1,16.5 C33.1,17.3401 32.4401,18 31.6,18 L22.6,18 C21.7599,18 21.1,17.3401 21.1,16.5 Z M40.6,12 L22.6,12 C21.7599,12 21.1,11.3401 21.1,10.5 C21.1,9.6599 21.7599,9 22.6,9 L40.6,9 C41.4401,9 42.1,9.6599 42.1,10.5 C42.1,11.3401 41.4401,12 40.6,12 Z" fill="#E6F2FF"></path></svg>