<svg xmlns="http://www.w3.org/2000/svg" xmlns:xlink="http://www.w3.org/1999/xlink" width="48px" height="48px" viewBox="0 0 48 48"><path d="M47.5879688,23.005875 L43.3692188,17.380875 C42.8199375,16.8315937 41.9299688,16.8315937 41.3806875,17.380875 L37.1619375,23.005875 C36.7595625,23.40825 36.6387188,24.0124687 36.8570625,24.5385 C37.074,25.0644375 37.5876563,25.4064375 38.1561563,25.4064375 L39.5624063,25.4064375 L39.5624063,46.5939375 L45.1874063,46.5939375 L45.1874063,25.4064375 L46.5936563,25.4064375 C47.1621563,25.4064375 47.6758125,25.0645312 47.89275,24.5385 C48.1112813,24.0124687 47.9903438,23.40825 47.5879688,23.005875 Z M12.3379688,17.380875 C11.7886875,16.8315937 10.8987188,16.8315937 10.3494375,17.380875 L6.1306875,23.005875 C5.7283125,23.40825 5.60746875,24.0124687 5.8258125,24.5385 C6.04275,25.0644375 6.55640625,25.4064375 7.12490625,25.4064375 L8.53115625,25.4064375 L8.53115625,46.5939375 L14.1561563,46.5939375 L14.1561563,25.4064375 L15.5624063,25.4064375 C16.1309063,25.4064375 16.6445625,25.0645312 16.8615,24.5385 C17.0798438,24.0125625 16.959,23.40825 16.556625,23.005875 L12.3379688,17.380875 Z M27.8067188,6.130875 C27.2574375,5.58159375 26.3674688,5.58159375 25.8181875,6.130875 L21.5994375,11.755875 C21.1970625,12.15825 21.0762188,12.7624687 21.2945625,13.2885 C21.5115,13.8144375 22.0251563,14.1564375 22.5936563,14.1564375 L23.9999063,14.1564375 L23.9999063,46.5939375 L29.6249063,46.5939375 L29.6249063,14.1564375 L31.0311563,14.1564375 C31.5996563,14.1564375 32.1133125,13.8145312 32.33025,13.2885 C32.5485938,12.7625625 32.42775,12.15825 32.025375,11.755875 L27.8067188,6.130875 Z" fill="#0071DC" class="primary-fill-color"></path><path d="M46.59375,45.1876875 L2.8125,45.1876875 L2.8125,1.4064375 C2.8125,0.62915625 2.18353125,0.0001875 1.40625,0.0001875 C0.62896875,0.0001875 0,0.62915625 0,1.4064375 L0,46.5939375 C0,47.3712187 0.62896875,48.0001875 1.40625,48.0001875 L46.59375,48.0001875 C47.3710313,48.0001875 48,47.3712187 48,46.5939375 C48,45.8166562 47.3710313,45.1876875 46.59375,45.1876875 Z" fill="#E6F2FF"></path></svg>